# xmcd CD database file
#
# Track frame offsets:
#	182
#	17655
#	33947
#	49302
#	63310
#	74497
#	91282
#	107372
#	129967
#	144482
#	168352
#	180285
#	193132
#	205632
#	221322
#
# Disc length: 3137 seconds
#
# Revision: 0
# Processed by: cddbd v1.4PL0 Copyright (c) Steve Scherf et al.
# Submitted via: Feurio! 1.65 - http://www.feurio.com
#
DISCID=c70c3f0f
DTITLE=Jerry Portnoy and The Streamliners - Home Run Hitter
DYEAR=1995
DGENRE=blues
TTITLE0=Home Run Hitter
TTITLE1=Poison Kisses
TTITLE2=Charge It
TTITLE3=Shoulda Coulda Woulda
TTITLE4=Misty
TTITLE5=One Chance
TTITLE6=I Realize
TTITLE7=She Makes Me
TTITLE8=Real Gone Guy
TTITLE9=Black Tear Drops
TTITLE10=Can't Remember To Forget
TTITLE11=You're So Smart
TTITLE12=Runnin' With The Blues
TTITLE13=Lookin' For My Baby
TTITLE14=Blues In A Dream
EXTD=
EXTT0=
EXTT1=
EXTT2=
EXTT3=
EXTT4=
EXTT5=
EXTT6=
EXTT7=
EXTT8=
EXTT9=
EXTT10=
EXTT11=
EXTT12=
EXTT13=
EXTT14=
PLAYORDER=
